<svg xmlns="http://www.w3.org/2000/svg" xmlns:xlink="http://www.w3.org/1999/xlink" width="200" zoomAndPan="magnify" viewBox="0 0 150 60" height="80" preserveAspectRatio="xMidYMid meet" version="1.0"><defs><clipPath id="id1"><path d="M 127 20 L 138.472656 20 L 138.472656 38 L 127 38 Z M 127 20 " clip-rule="nonzero"/></clipPath><clipPath id="id2"><path d="M 21 12.050781 L 57 12.050781 L 57 39 L 21 39 Z M 21 12.050781 " clip-rule="nonzero"/></clipPath><clipPath id="id3"><path d="M 35.535156 38.144531 C 32.179688 38.144531 28.945312 37.234375 26.09375 35.253906 C 24.105469 33.878906 21.800781 30.765625 21.800781 25.488281 C 21.800781 15.699219 26.796875 12.125 36.832031 12.125 L 54.898438 12.125 L 56.636719 17.699219 L 38.207031 17.699219 C 31.582031 17.699219 27.644531 18.21875 27.644531 25.488281 C 27.644531 27.890625 28.320312 29.597656 29.714844 30.710938 C 32.066406 32.59375 36.636719 32.671875 39.429688 32.402344 C 39.429688 32.402344 40.578125 28.710938 40.765625 28.113281 C 40.988281 27.410156 40.890625 27.242188 40.199219 27.242188 C 39.203125 27.242188 37.414062 27.242188 35.511719 27.242188 C 34.179688 27.242188 32.871094 26.574219 32.871094 24.960938 C 32.871094 23.402344 34.089844 22.5 35.757812 22.5 C 38.648438 22.5 44.601562 22.5 45.714844 22.5 C 47.175781 22.5 48.667969 22.707031 47.90625 25.023438 L 43.878906 37.253906 C 43.878906 37.253906 40.589844 38.144531 35.535156 38.144531 Z M 35.535156 38.144531 " clip-rule="nonzero"/></clipPath><linearGradient x1="0.36544" gradientTransform="matrix(34.83667, 0, 0, 26.017502, 21.801285, 12.125212)" y1="-0.000000018982" x2="0.36544" gradientUnits="userSpaceOnUse" y2="1" id="id4"><stop stop-opacity="1" stop-color="rgb(45.098877%, 45.098877%, 45.098877%)" offset="0"/><stop stop-opacity="1" stop-color="rgb(45.098877%, 45.098877%, 45.098877%)" offset="0.125"/><stop stop-opacity="1" stop-color="rgb(45.098877%, 45.098877%, 45.098877%)" offset="0.15625"/><stop stop-opacity="1" stop-color="rgb(45.051575%, 45.051575%, 45.051575%)" offset="0.171875"/><stop stop-opacity="1" stop-color="rgb(44.902039%, 44.902039%, 44.902039%)" offset="0.179688"/><stop stop-opacity="1" stop-color="rgb(44.696045%, 44.696045%, 44.696045%)" offset="0.1875"/><stop stop-opacity="1" stop-color="rgb(44.491577%, 44.491577%, 44.491577%)" offset="0.195313"/><stop stop-opacity="1" stop-color="rgb(44.285583%, 44.285583%, 44.285583%)" offset="0.203125"/><stop stop-opacity="1" stop-color="rgb(44.07959%, 44.07959%, 44.07959%)" offset="0.210938"/><stop stop-opacity="1" stop-color="rgb(43.873596%, 43.873596%, 43.873596%)" offset="0.21875"/><stop stop-opacity="1" stop-color="rgb(43.667603%, 43.667603%, 43.667603%)" offset="0.226563"/><stop stop-opacity="1" stop-color="rgb(43.461609%, 43.461609%, 43.461609%)" offset="0.234375"/><stop stop-opacity="1" stop-color="rgb(43.257141%, 43.257141%, 43.257141%)" offset="0.242187"/><stop stop-opacity="1" stop-color="rgb(43.051147%, 43.051147%, 43.051147%)" offset="0.25"/><stop stop-opacity="1" stop-color="rgb(42.845154%, 42.845154%, 42.845154%)" offset="0.257812"/><stop stop-opacity="1" stop-color="rgb(42.63916%, 42.63916%, 42.63916%)" offset="0.265625"/><stop stop-opacity="1" stop-color="rgb(42.433167%, 42.433167%, 42.433167%)" offset="0.273438"/><stop stop-opacity="1" stop-color="rgb(42.227173%, 42.227173%, 42.227173%)" offset="0.28125"/><stop stop-opacity="1" stop-color="rgb(42.022705%, 42.022705%, 42.022705%)" offset="0.289062"/><stop stop-opacity="1" stop-color="rgb(41.816711%, 41.816711%, 41.816711%)" offset="0.296875"/><stop stop-opacity="1" stop-color="rgb(41.610718%, 41.610718%, 41.610718%)" offset="0.304688"/><stop stop-opacity="1" stop-color="rgb(41.404724%, 41.404724%, 41.404724%)" offset="0.3125"/><stop stop-opacity="1" stop-color="rgb(41.19873%, 41.19873%, 41.19873%)" offset="0.320312"/><stop stop-opacity="1" stop-color="rgb(40.994263%, 40.994263%, 40.994263%)" offset="0.328125"/><stop stop-opacity="1" stop-color="rgb(40.788269%, 40.788269%, 40.788269%)" offset="0.335938"/><stop stop-opacity="1" stop-color="rgb(40.582275%, 40.582275%, 40.582275%)" offset="0.34375"/><stop stop-opacity="1" stop-color="rgb(40.376282%, 40.376282%, 40.376282%)" offset="0.351563"/><stop stop-opacity="1" stop-color="rgb(40.170288%, 40.170288%, 40.170288%)" offset="0.359375"/><stop stop-opacity="1" stop-color="rgb(39.964294%, 39.964294%, 39.964294%)" offset="0.367188"/><stop stop-opacity="1" stop-color="rgb(39.759827%, 39.759827%, 39.759827%)" offset="0.375"/><stop stop-opacity="1" stop-color="rgb(39.553833%, 39.553833%, 39.553833%)" offset="0.382812"/><stop stop-opacity="1" stop-color="rgb(39.347839%, 39.347839%, 39.347839%)" offset="0.390625"/><stop stop-opacity="1" stop-color="rgb(39.141846%, 39.141846%, 39.141846%)" offset="0.398438"/><stop stop-opacity="1" stop-color="rgb(38.935852%, 38.935852%, 38.935852%)" offset="0.40625"/><stop stop-opacity="1" stop-color="rgb(38.729858%, 38.729858%, 38.729858%)" offset="0.414062"/><stop stop-opacity="1" stop-color="rgb(38.525391%, 38.525391%, 38.525391%)" offset="0.421875"/><stop stop-opacity="1" stop-color="rgb(38.319397%, 38.319397%, 38.319397%)" offset="0.429688"/><stop stop-opacity="1" stop-color="rgb(38.113403%, 38.113403%, 38.113403%)" offset="0.4375"/><stop stop-opacity="1" stop-color="rgb(37.90741%, 37.90741%, 37.90741%)" offset="0.445312"/><stop stop-opacity="1" stop-color="rgb(37.701416%, 37.701416%, 37.701416%)" offset="0.453125"/><stop stop-opacity="1" stop-color="rgb(37.495422%, 37.495422%, 37.495422%)" offset="0.460938"/><stop stop-opacity="1" stop-color="rgb(37.290955%, 37.290955%, 37.290955%)" offset="0.46875"/><stop stop-opacity="1" stop-color="rgb(37.084961%, 37.084961%, 37.084961%)" offset="0.476563"/><stop stop-opacity="1" stop-color="rgb(36.878967%, 36.878967%, 36.878967%)" offset="0.484375"/><stop stop-opacity="1" stop-color="rgb(36.672974%, 36.672974%, 36.672974%)" offset="0.492188"/><stop stop-opacity="1" stop-color="rgb(36.46698%, 36.46698%, 36.46698%)" offset="0.5"/><stop stop-opacity="1" stop-color="rgb(36.260986%, 36.260986%, 36.260986%)" offset="0.507812"/><stop stop-opacity="1" stop-color="rgb(36.056519%, 36.056519%, 36.056519%)" offset="0.515625"/><stop stop-opacity="1" stop-color="rgb(35.850525%, 35.850525%, 35.850525%)" offset="0.523438"/><stop stop-opacity="1" stop-color="rgb(35.644531%, 35.644531%, 35.644531%)" offset="0.53125"/><stop stop-opacity="1" stop-color="rgb(35.438538%, 35.438538%, 35.438538%)" offset="0.539062"/><stop stop-opacity="1" stop-color="rgb(35.232544%, 35.232544%, 35.232544%)" offset="0.546875"/><stop stop-opacity="1" stop-color="rgb(35.028076%, 35.028076%, 35.028076%)" offset="0.554688"/><stop stop-opacity="1" stop-color="rgb(34.822083%, 34.822083%, 34.822083%)" offset="0.5625"/><stop stop-opacity="1" stop-color="rgb(34.616089%, 34.616089%, 34.616089%)" offset="0.570312"/><stop stop-opacity="1" stop-color="rgb(34.410095%, 34.410095%, 34.410095%)" offset="0.578125"/><stop stop-opacity="1" stop-color="rgb(34.204102%, 34.204102%, 34.204102%)" offset="0.585938"/><stop stop-opacity="1" stop-color="rgb(33.998108%, 33.998108%, 33.998108%)" offset="0.59375"/><stop stop-opacity="1" stop-color="rgb(33.79364%, 33.79364%, 33.79364%)" offset="0.601562"/><stop stop-opacity="1" stop-color="rgb(33.587646%, 33.587646%, 33.587646%)" offset="0.609375"/><stop stop-opacity="1" stop-color="rgb(33.381653%, 33.381653%, 33.381653%)" offset="0.617188"/><stop stop-opacity="1" stop-color="rgb(33.175659%, 33.175659%, 33.175659%)" offset="0.625"/><stop stop-opacity="1" stop-color="rgb(32.98645%, 32.98645%, 32.98645%)" offset="0.75"/><stop stop-opacity="1" stop-color="rgb(32.899475%, 32.899475%, 32.899475%)" offset="1"/></linearGradient><clipPath id="id5"><path d="M 11.722656 22 L 55 22 L 55 48 L 11.722656 48 Z M 11.722656 22 " clip-rule="nonzero"/></clipPath><clipPath id="id6"><path d="M 46.8125 40.21875 C 44.785156 41.640625 41.777344 42.429688 36.675781 42.429688 C 27.882812 42.429688 21.445312 39.265625 18.820312 33.128906 C 17.582031 30.230469 17.699219 26.945312 17.699219 22.5 L 11.855469 22.5 C 11.855469 27.1875 11.777344 30.863281 13.027344 34.246094 C 16.3125 43.125 24.765625 47.894531 36.121094 47.894531 C 47.117188 47.894531 51.671875 44.753906 54.640625 40.21875 Z M 46.8125 40.21875 " clip-rule="nonzero"/></clipPath><linearGradient x1="0.53" gradientTransform="matrix(42.784615, 0, 0, 25.393238, 11.856074, 22.501001)" y1="-0.0000000525838" x2="0.53" gradientUnits="userSpaceOnUse" y2="1" id="id7"><stop stop-opacity="1" stop-color="rgb(39.030457%, 39.030457%, 39.030457%)" offset="0"/><stop stop-opacity="1" stop-color="rgb(38.929749%, 38.929749%, 38.929749%)" offset="0.0078125"/><stop stop-opacity="1" stop-color="rgb(38.728333%, 38.728333%, 38.728333%)" offset="0.015625"/><stop stop-opacity="1" stop-color="rgb(38.528442%, 38.528442%, 38.528442%)" offset="0.0234375"/><stop stop-opacity="1" stop-color="rgb(38.327026%, 38.327026%, 38.327026%)" offset="0.03125"/><stop stop-opacity="1" stop-color="rgb(38.12561%, 38.12561%, 38.12561%)" offset="0.0390625"/><stop stop-opacity="1" stop-color="rgb(37.92572%, 37.92572%, 37.92572%)" offset="0.046875"/><stop stop-opacity="1" stop-color="rgb(37.724304%, 37.724304%, 37.724304%)" offset="0.0546875"/><stop stop-opacity="1" stop-color="rgb(37.524414%, 37.524414%, 37.524414%)" offset="0.0625"/><stop stop-opacity="1" stop-color="rgb(37.322998%, 37.322998%, 37.322998%)" offset="0.0703125"/><stop stop-opacity="1" stop-color="rgb(37.121582%, 37.121582%, 37.121582%)" offset="0.078125"/><stop stop-opacity="1" stop-color="rgb(36.921692%, 36.921692%, 36.921692%)" offset="0.0859375"/><stop stop-opacity="1" stop-color="rgb(36.720276%, 36.720276%, 36.720276%)" offset="0.09375"/><stop stop-opacity="1" stop-color="rgb(36.520386%, 36.520386%, 36.520386%)" offset="0.101563"/><stop stop-opacity="1" stop-color="rgb(36.31897%, 36.31897%, 36.31897%)" offset="0.109375"/><stop stop-opacity="1" stop-color="rgb(36.11908%, 36.11908%, 36.11908%)" offset="0.117188"/><stop stop-opacity="1" stop-color="rgb(35.917664%, 35.917664%, 35.917664%)" offset="0.125"/><stop stop-opacity="1" stop-color="rgb(35.716248%, 35.716248%, 35.716248%)" offset="0.132813"/><stop stop-opacity="1" stop-color="rgb(35.516357%, 35.516357%, 35.516357%)" offset="0.140625"/><stop stop-opacity="1" stop-color="rgb(35.314941%, 35.314941%, 35.314941%)" offset="0.148438"/><stop stop-opacity="1" stop-color="rgb(35.115051%, 35.115051%, 35.115051%)" offset="0.15625"/><stop stop-opacity="1" stop-color="rgb(34.913635%, 34.913635%, 34.913635%)" offset="0.164062"/><stop stop-opacity="1" stop-color="rgb(34.712219%, 34.712219%, 34.712219%)" offset="0.171875"/><stop stop-opacity="1" stop-color="rgb(34.512329%, 34.512329%, 34.512329%)" offset="0.179687"/><stop stop-opacity="1" stop-color="rgb(34.310913%, 34.310913%, 34.310913%)" offset="0.1875"/><stop stop-opacity="1" stop-color="rgb(34.111023%, 34.111023%, 34.111023%)" offset="0.195313"/><stop stop-opacity="1" stop-color="rgb(33.909607%, 33.909607%, 33.909607%)" offset="0.203125"/><stop stop-opacity="1" stop-color="rgb(33.708191%, 33.708191%, 33.708191%)" offset="0.210938"/><stop stop-opacity="1" stop-color="rgb(33.508301%, 33.508301%, 33.508301%)" offset="0.21875"/><stop stop-opacity="1" stop-color="rgb(33.306885%, 33.306885%, 33.306885%)" offset="0.226563"/><stop stop-opacity="1" stop-color="rgb(33.106995%, 33.106995%, 33.106995%)" offset="0.234375"/><stop stop-opacity="1" stop-color="rgb(32.952881%, 32.952881%, 32.952881%)" offset="0.25"/><stop stop-opacity="1" stop-color="rgb(32.899475%, 32.899475%, 32.899475%)" offset="0.5"/><stop stop-opacity="1" stop-color="rgb(32.899475%, 32.899475%, 32.899475%)" offset="1"/></linearGradient><clipPath id="id8"><path d="M 11.722656 28 L 55 28 L 55 48 L 11.722656 48 Z M 11.722656 28 " clip-rule="nonzero"/></clipPath></defs><path fill="#343434" d="M 52.636719 20.832031 L 57.257812 20.832031 C 62.332031 20.832031 64.371094 24.644531 64.371094 29.019531 C 64.371094 33.398438 62.332031 37.210938 57.257812 37.210938 L 52.636719 37.210938 Z M 54.132812 35.984375 L 57.300781 35.984375 C 60.925781 35.984375 62.875 33.445312 62.875 29.023438 C 62.875 24.601562 60.925781 22.058594 57.300781 22.058594 L 54.132812 22.058594 Z M 54.132812 35.984375 " fill-opacity="1" fill-rule="nonzero"/><path fill="#343434" d="M 67.0625 37.210938 L 67.0625 20.835938 L 76.394531 20.835938 L 76.394531 22.058594 L 68.554688 22.058594 L 68.554688 28.09375 L 74.195312 28.09375 L 74.195312 29.316406 L 68.554688 29.316406 L 68.554688 35.984375 L 76.824219 35.984375 L 76.824219 37.210938 Z M 67.0625 37.210938 " fill-opacity="1" fill-rule="nonzero"/><path fill="#343434" d="M 76.886719 20.832031 L 78.472656 20.832031 L 82.914062 35.078125 L 82.957031 35.078125 L 87.535156 20.832031 L 89.121094 20.832031 L 83.683594 37.210938 L 82.1875 37.210938 Z M 76.886719 20.832031 " fill-opacity="1" fill-rule="nonzero"/><path fill="#343434" d="M 90.882812 37.210938 L 90.882812 20.835938 L 100.214844 20.835938 L 100.214844 22.058594 L 92.378906 22.058594 L 92.378906 28.09375 L 98.015625 28.09375 L 98.015625 29.316406 L 92.378906 29.316406 L 92.378906 35.984375 L 100.644531 35.984375 L 100.644531 37.210938 Z M 90.882812 37.210938 " fill-opacity="1" fill-rule="nonzero"/><path fill="#343434" d="M 102.792969 20.832031 L 104.289062 20.832031 L 104.289062 35.984375 L 111.582031 35.984375 L 111.582031 37.210938 L 102.792969 37.210938 Z M 102.792969 20.832031 " fill-opacity="1" fill-rule="nonzero"/><path fill="#343434" d="M 125.171875 29.019531 C 125.171875 33.851562 122.816406 37.4375 118.714844 37.4375 C 114.617188 37.4375 112.257812 33.851562 112.257812 29.019531 C 112.257812 24.191406 114.617188 20.605469 118.714844 20.605469 C 122.816406 20.605469 125.171875 24.191406 125.171875 29.019531 Z M 123.675781 29.019531 C 123.675781 24.417969 121.726562 21.832031 118.714844 21.832031 C 115.703125 21.832031 113.753906 24.417969 113.753906 29.019531 C 113.753906 33.625 115.703125 36.210938 118.714844 36.210938 C 121.726562 36.214844 123.675781 33.625 123.675781 29.019531 Z M 123.675781 29.019531 " fill-opacity="1" fill-rule="nonzero"/><g clip-path="url(#id1)"><path fill="#343434" d="M 127.859375 37.210938 L 127.859375 20.835938 L 132.796875 20.835938 C 136.695312 20.835938 138.328125 22.648438 138.328125 25.394531 C 138.328125 28.136719 136.695312 29.953125 132.796875 29.953125 L 129.355469 29.953125 L 129.355469 37.210938 Z M 129.355469 28.726562 L 132.796875 28.726562 C 135.632812 28.726562 136.832031 27.546875 136.832031 25.394531 C 136.832031 23.238281 135.632812 22.058594 132.796875 22.058594 L 129.355469 22.058594 Z M 129.355469 28.726562 " fill-opacity="1" fill-rule="nonzero"/></g><g clip-path="url(#id2)"><g clip-path="url(#id3)"><path fill="url(#id4)" d="M 21.800781 12.125 L 21.800781 38.144531 L 56.636719 38.144531 L 56.636719 12.125 Z M 21.800781 12.125 " fill-rule="nonzero"/></g></g><g clip-path="url(#id5)"><g clip-path="url(#id6)"><path fill="url(#id7)" d="M 11.777344 22.5 L 11.777344 47.894531 L 54.640625 47.894531 L 54.640625 22.5 Z M 11.777344 22.5 " fill-rule="nonzero"/></g></g><path fill="#000000" d="M 40.734375 28.21875 C 40.472656 29.050781 39.429688 32.402344 39.429688 32.402344 C 36.636719 32.671875 32.066406 32.59375 29.714844 30.710938 C 28.921875 30.078125 28.363281 29.253906 28.027344 28.21875 L 22.023438 28.21875 C 22.648438 31.867188 24.476562 34.132812 26.09375 35.253906 C 28.945312 37.234375 32.179688 38.144531 35.535156 38.144531 C 40.589844 38.144531 43.878906 37.253906 43.878906 37.253906 L 46.855469 28.21875 Z M 40.734375 28.21875 " fill-opacity="1" fill-rule="nonzero"/><g clip-path="url(#id8)"><path fill="#000000" d="M 13.027344 34.246094 C 16.3125 43.125 24.765625 47.894531 36.121094 47.894531 C 47.117188 47.894531 51.671875 44.753906 54.640625 40.21875 L 46.8125 40.21875 C 44.785156 41.640625 41.777344 42.429688 36.675781 42.429688 C 27.882812 42.429688 21.445312 39.265625 18.824219 33.128906 C 18.179688 31.632812 17.90625 30.027344 17.785156 28.21875 L 11.933594 28.21875 C 12.050781 30.398438 12.332031 32.367188 13.027344 34.246094 Z M 13.027344 34.246094 " fill-opacity="1" fill-rule="nonzero"/></g></svg>